<svg width="24" height="25" viewBox="0 0 24 25" fill="none" xmlns="http://www.w3.org/2000/svg">
<g id="24 / basic / camera">
<path id="icon" fill-rule="evenodd" clip-rule="evenodd" d="M6.93702 6.11002C7.00787 6.01153 7.08656 5.89095 7.18689 5.72837C7.22355 5.66898 7.32349 5.50409 7.39792 5.3813L7.39798 5.38119L7.4818 5.24306C8.31079 3.88704 8.91339 3.26465 10 3.26465H14C15.0866 3.26465 15.6892 3.88704 16.5182 5.24306L16.6021 5.38129C16.6765 5.50408 16.7765 5.66898 16.8131 5.72837C16.9134 5.89095 16.9921 6.01153 17.063 6.11002C17.1097 6.17498 17.1505 6.22659 17.1838 6.26465H20C21.6569 6.26465 23 7.60779 23 9.26465V18.2646C23 19.9215 21.6569 21.2646 20 21.2646H4C2.34315 21.2646 1 19.9215 1 18.2646V9.26465C1 7.60779 2.34315 6.26465 4 6.26465H6.8162C6.84949 6.22659 6.8903 6.17498 6.93702 6.11002ZM4 8.26465C3.44772 8.26465 3 8.71236 3 9.26465V18.2646C3 18.8169 3.44772 19.2646 4 19.2646H20C20.5523 19.2646 21 18.8169 21 18.2646V9.26465C21 8.71236 20.5523 8.26465 20 8.26465H17C16.3357 8.26465 15.8876 7.90106 15.4394 7.2779C15.3363 7.13453 15.2341 6.97797 15.1111 6.77874C15.069 6.71048 14.9596 6.53001 14.8846 6.40617L14.8118 6.28624C14.3595 5.54637 14.0867 5.26465 14 5.26465H10C9.91327 5.26465 9.6405 5.54637 9.1882 6.28624L9.11543 6.40617L9.11502 6.40684C9.03998 6.53066 8.93092 6.7106 8.88887 6.77874C8.76592 6.97797 8.66375 7.13453 8.56061 7.2779C8.11237 7.90106 7.66434 8.26465 7 8.26465H4ZM20 10.2646C20 10.8169 19.5523 11.2646 19 11.2646C18.4477 11.2646 18 10.8169 18 10.2646C18 9.71236 18.4477 9.26465 19 9.26465C19.5523 9.26465 20 9.71236 20 10.2646ZM7 13.2646C7 16.0261 9.23858 18.2646 12 18.2646C14.7614 18.2646 17 16.0261 17 13.2646C17 10.5032 14.7614 8.26465 12 8.26465C9.23858 8.26465 7 10.5032 7 13.2646ZM15 13.2646C15 14.9215 13.6569 16.2646 12 16.2646C10.3431 16.2646 9 14.9215 9 13.2646C9 11.6078 10.3431 10.2646 12 10.2646C13.6569 10.2646 15 11.6078 15 13.2646Z" fill="black"/>
</g>
</svg>
