<svg width="17" height="16" viewBox="0 0 17 16" fill="none" xmlns="http://www.w3.org/2000/svg">
<path d="M3.71 4.25329C3.58334 4.25329 3.45 4.19996 3.35667 4.10663C3.16334 3.91329 3.16334 3.59329 3.35667 3.39996L5.77667 0.979961C5.97 0.786628 6.29 0.786628 6.48334 0.979961C6.67667 1.17329 6.67667 1.49329 6.48334 1.68663L4.06334 4.10663C3.96334 4.19996 3.83667 4.25329 3.71 4.25329Z" fill="#1B1B1B"/>
<path d="M12.7899 4.25329C12.6632 4.25329 12.5366 4.20663 12.4366 4.10663L10.0166 1.68663C9.82325 1.49329 9.82325 1.17329 10.0166 0.979961C10.2099 0.786628 10.5299 0.786628 10.7232 0.979961L13.1432 3.39996C13.3366 3.59329 13.3366 3.91329 13.1432 4.10663C13.0499 4.19996 12.9166 4.25329 12.7899 4.25329Z" fill="#1B1B1B"/>
<path d="M13.7233 7.06657C13.6766 7.06657 13.6299 7.06657 13.5833 7.06657H13.4299H2.91659C2.44992 7.07324 1.91659 7.07324 1.52992 6.68657C1.22325 6.38657 1.08325 5.9199 1.08325 5.23324C1.08325 3.3999 2.42325 3.3999 3.06325 3.3999H13.4366C14.0766 3.3999 15.4166 3.3999 15.4166 5.23324C15.4166 5.92657 15.2766 6.38657 14.9699 6.68657C14.6233 7.03324 14.1566 7.06657 13.7233 7.06657ZM3.06325 6.06657H13.5899C13.8899 6.07324 14.1699 6.07324 14.2633 5.9799C14.3099 5.93324 14.4099 5.77324 14.4099 5.23324C14.4099 4.4799 14.2233 4.3999 13.4299 4.3999H3.06325C2.26992 4.3999 2.08325 4.4799 2.08325 5.23324C2.08325 5.77324 2.18992 5.93324 2.22992 5.9799C2.32325 6.06657 2.60992 6.06657 2.90325 6.06657H3.06325Z" fill="#1B1B1B"/>
<path d="M6.75659 12.2002C6.48326 12.2002 6.25659 11.9735 6.25659 11.7002V9.3335C6.25659 9.06016 6.48326 8.8335 6.75659 8.8335C7.02993 8.8335 7.25659 9.06016 7.25659 9.3335V11.7002C7.25659 11.9802 7.02993 12.2002 6.75659 12.2002Z" fill="#1B1B1B"/>
<path d="M9.82324 12.2002C9.54991 12.2002 9.32324 11.9735 9.32324 11.7002V9.3335C9.32324 9.06016 9.54991 8.8335 9.82324 8.8335C10.0966 8.8335 10.3232 9.06016 10.3232 9.3335V11.7002C10.3232 11.9802 10.0966 12.2002 9.82324 12.2002Z" fill="#1B1B1B"/>
<path d="M10.1766 15.167H6.15658C3.76992 15.167 3.23658 13.747 3.02992 12.5137L2.08992 6.74699C2.04325 6.47366 2.22992 6.22032 2.50325 6.17366C2.77658 6.12699 3.02992 6.31366 3.07658 6.58699L4.01658 12.347C4.20992 13.527 4.60992 14.167 6.15658 14.167H10.1766C11.8899 14.167 12.0833 13.567 12.3033 12.407L13.4233 6.57366C13.4766 6.30032 13.7366 6.12032 14.0099 6.18032C14.2833 6.23366 14.4566 6.49366 14.4033 6.76699L13.2833 12.6003C13.0233 13.9537 12.5899 15.167 10.1766 15.167Z" fill="#1B1B1B"/>
</svg>
