<svg width="24" height="24" viewBox="0 0 24 24" fill="none" xmlns="http://www.w3.org/2000/svg">
<path d="M8.27 1.25H4.23C2.22 1.25 1.25 2.18 1.25 4.1V19.9C1.25 21.82 2.23 22.75 4.23 22.75H8.27C10.28 22.75 11.25 21.82 11.25 19.9V4.1C11.25 2.18 10.27 1.25 8.27 1.25ZM4.23 21.25C2.96 21.25 2.75 20.91 2.75 19.9V4.1C2.75 3.09 2.96 2.75 4.23 2.75H8.27C9.54 2.75 9.75 3.09 9.75 4.1V19.9C9.75 20.91 9.54 21.25 8.27 21.25H4.23Z" fill="#292D32"/>
<path d="M19.77 8.25H15.73C13.72 8.25 12.75 9.18 12.75 11.1V19.9C12.75 21.82 13.73 22.75 15.73 22.75H19.77C21.78 22.75 22.75 21.82 22.75 19.9V11.1C22.75 9.18 21.77 8.25 19.77 8.25ZM15.73 21.25C14.46 21.25 14.25 20.91 14.25 19.9V11.1C14.25 10.09 14.46 9.75 15.73 9.75H19.77C21.04 9.75 21.25 10.09 21.25 11.1V19.9C21.25 20.91 21.04 21.25 19.77 21.25H15.73Z" fill="#292D32"/>
</svg>
