<svg width="24" height="21" viewBox="-1 0 24 21" fill="none" xmlns="http://www.w3.org/2000/svg">
<path fill-rule="evenodd" clip-rule="evenodd" d="M15.5532 1.62128e-05C14.1056 0 13.1724 0.173652 12.1027 0.700869C11.7066 0.896062 11.335 1.13113 10.99 1.40538C10.6582 1.14651 10.3015 0.922229 9.92181 0.733151C8.83132 0.190076 7.85028 0 6.45455 0C2.71644 0 0 3.11861 0 7.16893C0 10.2277 1.69383 13.1825 4.84884 16.0397C6.50489 17.5394 8.61932 19.0235 10.1336 19.8131L11 20.2648L11.8664 19.8131C13.3807 19.0235 15.4951 17.5394 17.1512 16.0397C20.3062 13.1825 22 10.2277 22 7.16893C22 3.16148 19.2579 0.0154641 15.5532 1.62128e-05ZM20 7.16893C20 9.56536 18.5862 12.0317 15.8137 14.5424C14.3022 15.9112 12.359 17.2792 11 17.9969C9.64104 17.2792 7.69782 15.9112 6.18628 14.5424C3.41382 12.0317 2 9.56536 2 7.16893C2 4.1763 3.88364 2.01378 6.45455 2.01378C7.56428 2.01378 8.24813 2.14628 9.03514 2.53821C9.50001 2.76972 9.91088 3.07542 10.2665 3.45743L11.0023 4.24777L11.7315 3.45117C12.0951 3.05385 12.512 2.74119 12.9819 2.5096C13.7459 2.13309 14.387 2.01378 15.5491 2.01379C18.0882 2.02438 20 4.21783 20 7.16893Z" fill="#E51E36"/>
</svg>
