<svg width="24" height="22" viewBox="-1.5 0 24 22" fill="none" xmlns="http://www.w3.org/2000/svg">
<path fill-rule="evenodd" clip-rule="evenodd" d="M3.74704 5.96554C3.41883 5.42522 3.25 4.76015 3.25 3.95176C3.25 2.35794 4.44035 0.931091 6.25 0.931091C8.06199 0.931091 9.52327 2.15308 10.25 4.06637C10.9767 2.15308 12.438 0.931091 14.25 0.931091C16.0596 0.931091 17.25 2.35794 17.25 3.95176C17.25 4.76015 17.0812 5.42522 16.753 5.96554H18.25C19.3546 5.96554 20.25 6.86714 20.25 7.97932V9.9931C20.25 11.1053 19.3546 12.0069 18.25 12.0069V19.0551C18.25 20.1673 17.3546 21.0689 16.25 21.0689H4.25C3.14543 21.0689 2.25 20.1673 2.25 19.0551V12.0069C1.14543 12.0069 0.25 11.1053 0.25 9.9931V7.97932C0.25 6.86714 1.14543 5.96554 2.25 5.96554H3.74704ZM9.25 7.97932H2.25V9.9931H9.25V7.97932ZM18.25 9.9931H11.25V7.97932H18.25V9.9931ZM9.25 19.0551V12.0069H4.25V19.0551H9.25ZM16.25 19.0551H11.25V12.0069H16.25V19.0551ZM6.25 2.94487C5.62965 2.94487 5.25 3.39995 5.25 3.95176C5.25 5.21363 6.267 5.81362 8.67942 5.93985C8.4113 4.06413 7.41218 2.94487 6.25 2.94487ZM11.75 5.93985C12.0181 4.06413 13.0172 2.94487 14.1794 2.94487C14.7998 2.94487 15.1794 3.39995 15.1794 3.95176C15.1794 5.21363 14.1624 5.81362 11.75 5.93985Z" fill="white"/>
</svg>
