<svg width="32" height="33" viewBox="0 0 32 33" fill="none" xmlns="http://www.w3.org/2000/svg">

<path d="M15.9999 27.0248C14.9099 27.0248 13.8299 26.7048 12.9799 26.0748L8.6799 22.8648C7.5399 22.0148 6.6499 20.2348 6.6499 18.8248V11.3848C6.6499 9.84477 7.77992 8.20477 9.22992 7.66477L14.2199 5.79477C15.2099 5.42477 16.7699 5.42477 17.7599 5.79477L22.7499 7.66477C24.1999 8.20477 25.3299 9.84477 25.3299 11.3848V18.8148C25.3299 20.2348 24.4399 22.0048 23.2999 22.8548L18.9999 26.0648C18.1699 26.7048 17.0899 27.0248 15.9999 27.0248ZM14.7499 7.20477L9.75992 9.07477C8.90992 9.39477 8.15991 10.4748 8.15991 11.3948V18.8248C8.15991 19.7748 8.8299 21.1048 9.5799 21.6648L13.8799 24.8748C15.0299 25.7348 16.9699 25.7348 18.1299 24.8748L22.4299 21.6648C23.1899 21.0948 23.8499 19.7748 23.8499 18.8248V11.3848C23.8499 10.4748 23.0999 9.39477 22.2499 9.06477L17.2599 7.19477C16.5799 6.95477 15.4199 6.95477 14.7499 7.20477Z" fill="white"/>
<path d="M16 20.5148C13.38 20.5148 11.25 18.3848 11.25 15.7648C11.25 13.1448 13.38 11.0148 16 11.0148C18.62 11.0148 20.75 13.1448 20.75 15.7648C20.75 18.3848 18.62 20.5148 16 20.5148ZM16 12.5148C14.21 12.5148 12.75 13.9748 12.75 15.7648C12.75 17.5548 14.21 19.0148 16 19.0148C17.79 19.0148 19.25 17.5548 19.25 15.7648C19.25 13.9748 17.79 12.5148 16 12.5148Z" fill="white"/>
<path d="M14.9999 17.5148C14.7499 17.5148 14.4999 17.3848 14.3599 17.1548C14.1499 16.7948 14.2599 16.3348 14.6199 16.1248L15.3799 15.6648C15.4599 15.6148 15.4999 15.5348 15.4999 15.4548V14.5248C15.4999 14.1148 15.8399 13.7748 16.2499 13.7748C16.6599 13.7748 16.9999 14.1048 16.9999 14.5148V15.4448C16.9999 16.0548 16.6699 16.6348 16.1499 16.9448L15.3799 17.4048C15.2699 17.4848 15.1299 17.5148 14.9999 17.5148Z" fill="white"/>
</svg>
