<svg width="32" height="33" viewBox="0 0 32 33" fill="none" xmlns="http://www.w3.org/2000/svg">

<path d="M26 14.0148C25.59 14.0148 25.25 13.6748 25.25 13.2648V11.2648C25.25 8.68477 23.58 7.01477 21 7.01477H11C8.42 7.01477 6.75 8.68477 6.75 11.2648V13.2648C6.75 13.6748 6.41 14.0148 6 14.0148C5.59 14.0148 5.25 13.6748 5.25 13.2648V11.2648C5.25 7.82477 7.56 5.51477 11 5.51477H21C24.44 5.51477 26.75 7.82477 26.75 11.2648V13.2648C26.75 13.6748 26.41 14.0148 26 14.0148Z" fill="white"/>
<path d="M21 27.0148H11C7.56 27.0148 5.25 24.7048 5.25 21.2648V19.2648C5.25 18.8548 5.59 18.5148 6 18.5148C6.41 18.5148 6.75 18.8548 6.75 19.2648V21.2648C6.75 23.8448 8.42 25.5148 11 25.5148H21C23.58 25.5148 25.25 23.8448 25.25 21.2648V19.2648C25.25 18.8548 25.59 18.5148 26 18.5148C26.41 18.5148 26.75 18.8548 26.75 19.2648V21.2648C26.75 24.7048 24.44 27.0148 21 27.0148Z" fill="white"/>
<path d="M16.0001 17.3447C15.8701 17.3447 15.7401 17.3147 15.6201 17.2447L10.3201 14.1847C9.96011 13.9747 9.84011 13.5147 10.0501 13.1547C10.2601 12.7947 10.7201 12.6747 11.0701 12.8847L15.9901 15.7347L20.8801 12.9047C21.2401 12.6947 21.7001 12.8247 21.9001 13.1747C22.1101 13.5347 21.9801 13.9947 21.6301 14.2047L16.3701 17.2447C16.2601 17.3047 16.1301 17.3447 16.0001 17.3447Z" fill="white"/>
<path d="M16 22.7847C15.59 22.7847 15.25 22.4447 15.25 22.0347V16.5947C15.25 16.1847 15.59 15.8447 16 15.8447C16.41 15.8447 16.75 16.1847 16.75 16.5947V22.0347C16.75 22.4447 16.41 22.7847 16 22.7847Z" fill="white"/>
<path d="M16.0002 23.0148C15.4202 23.0148 14.8502 22.8848 14.3902 22.6348L11.1902 20.8549C10.2302 20.3249 9.49023 19.0548 9.49023 17.9548V14.5648C9.49023 13.4748 10.2402 12.2048 11.1902 11.6648L14.3902 9.88482C15.3102 9.37482 16.6902 9.37482 17.6102 9.88482L20.8102 11.6648C21.7702 12.1948 22.5102 13.4648 22.5102 14.5648V17.9548C22.5102 19.0448 21.7602 20.3149 20.8102 20.8549L17.6102 22.6348C17.1502 22.8848 16.5802 23.0148 16.0002 23.0148ZM15.1202 11.2048L11.9202 12.9848C11.4302 13.2548 10.9902 14.0148 10.9902 14.5648V17.9548C10.9902 18.5148 11.4302 19.2648 11.9202 19.5348L15.1202 21.3148C15.5802 21.5648 16.4202 21.5648 16.8802 21.3148L20.0802 19.5348C20.5702 19.2648 21.0102 18.5048 21.0102 17.9548V14.5648C21.0102 14.0048 20.5702 13.2548 20.0802 12.9848L16.8802 11.2048C16.4202 10.9548 15.5802 10.9548 15.1202 11.2048Z" fill="white"/>
</svg>
