<svg width="32" height="33" viewBox="0 0 32 33" fill="none" xmlns="http://www.w3.org/2000/svg">

<path d="M16.9998 19.0148H15.9998C15.5898 19.0148 15.2498 18.6748 15.2498 18.2648C15.2498 17.8548 15.5898 17.5148 15.9998 17.5148H16.9998C17.6898 17.5148 18.2498 16.9548 18.2498 16.2648V7.01477H9.99978C8.81978 7.01477 7.73975 7.65475 7.15975 8.68475C6.95975 9.04475 6.49979 9.17479 6.13979 8.97479C5.77979 8.77479 5.64975 8.31477 5.84975 7.95477C6.68975 6.45477 8.27978 5.51477 9.99978 5.51477H18.9998C19.4098 5.51477 19.7498 5.85477 19.7498 6.26477V16.2648C19.7498 17.7848 18.5198 19.0148 16.9998 19.0148Z" fill="white"/>
<path d="M23 25.0148H22C21.59 25.0148 21.25 24.6748 21.25 24.2648C21.25 23.5748 20.69 23.0148 20 23.0148C19.31 23.0148 18.75 23.5748 18.75 24.2648C18.75 24.6748 18.41 25.0148 18 25.0148H14C13.59 25.0148 13.25 24.6748 13.25 24.2648C13.25 23.5748 12.69 23.0148 12 23.0148C11.31 23.0148 10.75 23.5748 10.75 24.2648C10.75 24.6748 10.41 25.0148 10 25.0148H9C6.93 25.0148 5.25 23.3348 5.25 21.2648C5.25 20.8548 5.59 20.5148 6 20.5148C6.41 20.5148 6.75 20.8548 6.75 21.2648C6.75 22.5048 7.76 23.5148 9 23.5148H9.34998C9.67998 22.3648 10.74 21.5148 12 21.5148C13.26 21.5148 14.32 22.3648 14.65 23.5148H17.36C17.69 22.3648 18.75 21.5148 20.01 21.5148C21.27 21.5148 22.33 22.3648 22.66 23.5148H23C24.24 23.5148 25.25 22.5048 25.25 21.2648V19.0148H23C22.04 19.0148 21.25 18.2248 21.25 17.2648V14.2648C21.25 13.3048 22.03 12.5148 23 12.5148L21.93 10.6448C21.71 10.2548 21.29 10.0148 20.84 10.0148H19.75V16.2648C19.75 17.7848 18.52 19.0148 17 19.0148H16C15.59 19.0148 15.25 18.6748 15.25 18.2648C15.25 17.8548 15.59 17.5148 16 17.5148H17C17.69 17.5148 18.25 16.9548 18.25 16.2648V9.26477C18.25 8.85477 18.59 8.51477 19 8.51477H20.84C21.83 8.51477 22.74 9.04479 23.23 9.90479L24.94 12.8948C25.07 13.1248 25.07 13.4148 24.94 13.6448C24.81 13.8748 24.56 14.0148 24.29 14.0148H23C22.86 14.0148 22.75 14.1248 22.75 14.2648V17.2648C22.75 17.4048 22.86 17.5148 23 17.5148H26C26.41 17.5148 26.75 17.8548 26.75 18.2648V21.2648C26.75 23.3348 25.07 25.0148 23 25.0148Z" fill="white"/>
<path d="M12 27.0148C10.48 27.0148 9.25 25.7848 9.25 24.2648C9.25 22.7448 10.48 21.5148 12 21.5148C13.52 21.5148 14.75 22.7448 14.75 24.2648C14.75 25.7848 13.52 27.0148 12 27.0148ZM12 23.0148C11.31 23.0148 10.75 23.5748 10.75 24.2648C10.75 24.9548 11.31 25.5148 12 25.5148C12.69 25.5148 13.25 24.9548 13.25 24.2648C13.25 23.5748 12.69 23.0148 12 23.0148Z" fill="white"/>
<path d="M20 27.0148C18.48 27.0148 17.25 25.7848 17.25 24.2648C17.25 22.7448 18.48 21.5148 20 21.5148C21.52 21.5148 22.75 22.7448 22.75 24.2648C22.75 25.7848 21.52 27.0148 20 27.0148ZM20 23.0148C19.31 23.0148 18.75 23.5748 18.75 24.2648C18.75 24.9548 19.31 25.5148 20 25.5148C20.69 25.5148 21.25 24.9548 21.25 24.2648C21.25 23.5748 20.69 23.0148 20 23.0148Z" fill="white"/>
<path d="M26 19.0148H23C22.04 19.0148 21.25 18.2248 21.25 17.2648V14.2648C21.25 13.3048 22.04 12.5148 23 12.5148H24.29C24.56 12.5148 24.81 12.6548 24.94 12.8948L26.65 15.8948C26.71 16.0048 26.75 16.1348 26.75 16.2648V18.2648C26.75 18.6748 26.41 19.0148 26 19.0148ZM23 14.0148C22.86 14.0148 22.75 14.1248 22.75 14.2648V17.2648C22.75 17.4048 22.86 17.5148 23 17.5148H25.25V16.4648L23.85 14.0148H23Z" fill="white"/>
<path d="M12 13.0148H6C5.59 13.0148 5.25 12.6748 5.25 12.2648C5.25 11.8548 5.59 11.5148 6 11.5148H12C12.41 11.5148 12.75 11.8548 12.75 12.2648C12.75 12.6748 12.41 13.0148 12 13.0148Z" fill="white"/>
<path d="M10 16.0148H6C5.59 16.0148 5.25 15.6748 5.25 15.2648C5.25 14.8548 5.59 14.5148 6 14.5148H10C10.41 14.5148 10.75 14.8548 10.75 15.2648C10.75 15.6748 10.41 16.0148 10 16.0148Z" fill="white"/>
<path d="M8 19.0148H6C5.59 19.0148 5.25 18.6748 5.25 18.2648C5.25 17.8548 5.59 17.5148 6 17.5148H8C8.41 17.5148 8.75 17.8548 8.75 18.2648C8.75 18.6748 8.41 19.0148 8 19.0148Z" fill="white"/>
</svg>
