<svg width="32" height="33" viewBox="0 0 32 33" fill="none" xmlns="http://www.w3.org/2000/svg">

<path d="M8.67813 6.83821C8.35 6.96946 8.15313 7.10539 7.91875 7.36321C7.57188 7.75227 7.52969 7.92571 7.32344 9.81946C7.225 10.7476 7.14063 11.521 7.14063 11.5398C7.14063 11.5538 6.73281 11.5773 6.23594 11.5866C5.34063 11.6007 5.33594 11.6007 5.03125 11.746C4.66094 11.9195 4.32812 12.2476 4.15 12.6038L4.02344 12.8663V18.6788V24.4913L4.15938 24.7726C4.3375 25.1288 4.65156 25.4429 5.00781 25.621L5.28906 25.757H14.2891H23.2891L23.5703 25.607C23.9313 25.4195 24.2594 25.082 24.4234 24.7257C24.5547 24.4445 24.5547 24.4351 24.5688 23.3523C24.5828 22.382 24.5922 22.2601 24.6578 22.2835C24.8172 22.3445 25.6797 22.3163 25.8906 22.2413C26.5703 22.0023 27.0016 21.482 27.1141 20.7788C27.1844 20.3241 28 10.3866 28 9.97414C28 9.78196 27.9672 9.51946 27.9297 9.39289C27.775 8.87258 27.2734 8.38508 26.7344 8.22571C26.4531 8.14602 9.89688 6.74915 9.25 6.74915C9.025 6.75383 8.81875 6.78664 8.67813 6.83821ZM17.9781 8.43665C22.6188 8.82571 26.4625 9.16321 26.5141 9.19133C26.6641 9.27102 26.875 9.47258 26.95 9.6179C26.9875 9.68821 27.0156 9.85696 27.0156 9.9929C27.0156 10.3773 26.1672 20.5304 26.1203 20.7273C26.0641 20.9523 25.8906 21.1538 25.6703 21.257C25.4922 21.3413 25.0047 21.3648 24.7094 21.2991L24.5781 21.2757L24.5688 17.0945L24.5547 12.9132L24.4047 12.6038C24.2219 12.2288 23.8844 11.9007 23.5094 11.7273L23.2422 11.6007L15.6813 11.5866L8.11563 11.5773L8.14375 11.3991C8.15781 11.3054 8.2375 10.6023 8.3125 9.84289C8.39219 9.08352 8.48125 8.38977 8.50469 8.3054C8.57031 8.10383 8.76719 7.87883 8.94531 7.79914C9.02031 7.76633 9.18906 7.73821 9.31563 7.73352C9.44219 7.73352 13.3375 8.05227 17.9781 8.43665ZM23.125 12.6507C23.2141 12.6976 23.35 12.8148 23.4297 12.9085C23.5703 13.082 23.5703 13.096 23.5844 13.7148L23.6031 14.3429H14.2609H4.92344L4.94688 13.7663C4.96094 13.3726 4.99375 13.1523 5.04531 13.0538C5.13438 12.8804 5.34531 12.6741 5.5 12.6132C5.575 12.5851 8.65938 12.5663 14.2891 12.5663C22.6516 12.5616 22.9703 12.5663 23.125 12.6507ZM23.5938 16.2648V17.2023H14.2656H4.9375V16.2648V15.3273H14.2656H23.5938V16.2648ZM23.5938 21.1585C23.5938 23.146 23.575 24.1773 23.5422 24.2663C23.5188 24.3366 23.4391 24.4585 23.3688 24.5288C23.0969 24.8148 23.7719 24.796 14.2844 24.796H5.58438L5.39688 24.6929C5.28438 24.6273 5.15781 24.5007 5.0875 24.3741L4.96094 24.1632L4.94688 21.1726L4.93281 18.1866H14.2656H23.5938V21.1585Z" fill="white"/>
<path d="M16.8344 19.6819L16.6797 19.8179V21.5101V23.2022L16.8109 23.3288L16.9375 23.4601L19.3422 23.4741C21.0859 23.4835 21.775 23.4694 21.8734 23.4319C22.1406 23.3194 22.1406 23.3288 22.1406 21.5241C22.1406 20.4788 22.1219 19.8366 22.0938 19.7757C21.9719 19.5507 21.9344 19.546 19.3797 19.546H16.9844L16.8344 19.6819ZM21.1562 21.5147V22.4991H19.3984H17.6406V21.5147V20.5304H19.3984H21.1562V21.5147Z" fill="white"/>
</svg>
