<svg width="32" height="33" viewBox="0 0 32 33" fill="none" xmlns="http://www.w3.org/2000/svg">

<path d="M12.5698 20.2848C12.3798 20.2848 12.1898 20.2148 12.0398 20.0648C11.7498 19.7748 11.7498 19.2948 12.0398 19.0048L18.5898 12.4548C18.8798 12.1648 19.3598 12.1648 19.6498 12.4548C19.9398 12.7448 19.9398 13.2248 19.6498 13.5148L13.0998 20.0648C12.9498 20.2148 12.7598 20.2848 12.5698 20.2848Z" fill="white"/>
<path d="M12.98 15.3748C11.89 15.3748 11 14.4848 11 13.3948C11 12.3048 11.89 11.4148 12.98 11.4148C14.07 11.4148 14.96 12.3048 14.96 13.3948C14.96 14.4848 14.07 15.3748 12.98 15.3748ZM12.98 12.9248C12.72 12.9248 12.5 13.1348 12.5 13.4048C12.5 13.6748 12.71 13.8848 12.98 13.8848C13.25 13.8848 13.46 13.6748 13.46 13.4048C13.46 13.1348 13.24 12.9248 12.98 12.9248Z" fill="white"/>
<path d="M19.52 21.1048C18.43 21.1048 17.54 20.2148 17.54 19.1248C17.54 18.0348 18.43 17.1448 19.52 17.1448C20.61 17.1448 21.5 18.0348 21.5 19.1248C21.5 20.2148 20.61 21.1048 19.52 21.1048ZM19.52 18.6548C19.26 18.6548 19.04 18.8648 19.04 19.1348C19.04 19.4048 19.25 19.6148 19.52 19.6148C19.79 19.6148 20 19.4048 20 19.1348C20 18.8648 19.79 18.6548 19.52 18.6548Z" fill="white"/>
<path d="M16 27.0148C10.07 27.0148 5.25 22.1948 5.25 16.2648C5.25 10.3348 10.07 5.51477 16 5.51477C21.93 5.51477 26.75 10.3348 26.75 16.2648C26.75 22.1948 21.93 27.0148 16 27.0148ZM16 7.01477C10.9 7.01477 6.75 11.1648 6.75 16.2648C6.75 21.3648 10.9 25.5148 16 25.5148C21.1 25.5148 25.25 21.3648 25.25 16.2648C25.25 11.1648 21.1 7.01477 16 7.01477Z" fill="white"/>
</svg>
