<svg width="26" height="25" viewBox="0 0 26 25" fill="none" xmlns="http://www.w3.org/2000/svg">
<path d="M17.354 7.24387L17.4707 7.43758L17.6932 7.47788L24.2142 8.65887C24.2142 8.65887 24.2142 8.65887 24.2142 8.65887C24.6215 8.73266 24.9334 9.00398 25.0496 9.3414L25.0496 9.34153C25.1646 9.67497 25.0805 10.0461 24.8121 10.3134L24.812 10.3135L20.0784 15.0286L19.8955 15.2108L19.9381 15.4654L21.1345 22.6146C21.1931 22.9652 21.0423 23.331 20.7146 23.559C20.3831 23.7894 19.9349 23.8308 19.5572 23.6599C19.5572 23.6599 19.5571 23.6599 19.5571 23.6599L13.006 20.6937L12.7998 20.6003L12.5936 20.6937L6.04238 23.6599C5.66475 23.8308 5.21645 23.7895 4.88492 23.5589C4.5572 23.3309 4.40656 22.9652 4.46521 22.6147L5.66145 15.4653L5.70405 15.2108L5.52116 15.0286L0.787532 10.3135L0.787526 10.3134C0.519126 10.0461 0.435076 9.67496 0.549976 9.34146C0.666266 9.00395 0.97811 8.73265 1.38542 8.65887C1.38542 8.65887 1.38542 8.65887 1.38543 8.65887L7.90638 7.47788L8.1289 7.43758L8.24558 7.24387L11.8349 1.28506L11.4066 1.02707L11.8349 1.28506C12.0229 0.972966 12.3875 0.764648 12.7998 0.764648C13.2121 0.764648 13.5767 0.972958 13.7647 1.28506C13.7647 1.28506 13.7647 1.28506 13.7647 1.28507L17.354 7.24387Z" stroke="#E51E36"/>
</svg>
