<svg width="27" height="18" viewBox="0 0 27 18" fill="none" xmlns="http://www.w3.org/2000/svg">
<g clip-path="url(#clip0_23_51)">
<path d="M10.85 7.7C10.65 7.9 10.4083 7.996 10.125 7.988C9.84167 7.98 9.6 7.87566 9.4 7.675L6.575 4.85L6.575 16C6.575 16.2833 6.479 16.521 6.287 16.713C6.095 16.905 5.85767 17.0007 5.575 17C5.29167 17 5.054 16.904 4.862 16.712C4.67 16.52 4.57433 16.2827 4.575 16L4.575 4.85L1.725 7.7C1.525 7.9 1.28733 8 1.012 8C0.736666 8 0.499333 7.9 0.3 7.7C0.0999997 7.5 0 7.26233 0 6.987C0 6.71166 0.0999997 6.47433 0.3 6.275L4.875 1.7C4.975 1.6 5.08333 1.529 5.2 1.487C5.31667 1.445 5.44167 1.42433 5.575 1.425C5.70833 1.425 5.83333 1.446 5.95 1.488C6.06667 1.53 6.175 1.60066 6.275 1.7L10.875 6.3C11.0583 6.48333 11.15 6.71233 11.15 6.987C11.15 7.26166 11.05 7.49933 10.85 7.7Z" fill="#171717"/>
<path d="M15.3004 11.3C15.5004 11.1 15.7421 11.004 16.0254 11.012C16.3087 11.02 16.5504 11.1243 16.7504 11.325L19.5754 14.15V3C19.5754 2.71667 19.6714 2.479 19.8634 2.287C20.0554 2.095 20.2927 1.99934 20.5754 2C20.8587 2 21.0964 2.096 21.2884 2.288C21.4804 2.48 21.5761 2.71734 21.5754 3V14.15L24.4254 11.3C24.6254 11.1 24.8631 11 25.1384 11C25.4137 11 25.6511 11.1 25.8504 11.3C26.0504 11.5 26.1504 11.7377 26.1504 12.013C26.1504 12.2883 26.0504 12.5257 25.8504 12.725L21.2754 17.3C21.1754 17.4 21.0671 17.471 20.9504 17.513C20.8337 17.555 20.7087 17.5757 20.5754 17.575C20.4421 17.575 20.3171 17.554 20.2004 17.512C20.0837 17.47 19.9754 17.3993 19.8754 17.3L15.2754 12.7C15.0921 12.5167 15.0004 12.2877 15.0004 12.013C15.0004 11.7383 15.1004 11.5007 15.3004 11.3Z" fill="#171717"/>
</g>
<defs>
<clipPath id="clip0_23_51">
<rect width="18" height="27" fill="white" transform="matrix(0 -1 1 0 0 18)"/>
</clipPath>
</defs>
</svg>
